<svg width="25" height="35" viewBox="0 0 25 35" fill="none" xmlns="http://www.w3.org/2000/svg">
<path d="M18.2724 13.0973H11.398V0H18.2724C21.9823 0 25 2.93708 25 6.54792C25 10.1588 21.9823 13.0973 18.2724 13.0973ZM13.602 10.9521H18.2724C20.7672 10.9521 22.7959 8.97604 22.7959 6.54938C22.7959 4.12271 20.7657 2.14667 18.2724 2.14667H13.602V10.9521ZM13.602 13.0973H6.7291C3.01918 13.0973 0.00149824 10.1602 0.00149824 6.54938C0.00149824 2.93854 3.01918 0 6.7291 0H13.6035V13.0973H13.602ZM6.7291 2.14521C4.23434 2.14521 2.20557 4.12125 2.20557 6.54792C2.20557 8.97458 4.23434 10.9521 6.7291 10.9521H11.3995V2.14521H6.7291ZM13.602 24.0479H6.7291C3.01918 24.0479 0.00149824 21.1108 0.00149824 17.5C0.00149824 13.8892 3.01918 10.9521 6.7291 10.9521H13.6035V24.0479H13.602ZM6.7291 13.0973C4.23434 13.0973 2.20557 15.0733 2.20557 17.5C2.20557 19.9267 4.23584 21.9027 6.7291 21.9027H11.3995V13.0973H6.7291ZM6.76506 35C3.03566 35 0 32.0629 0 28.4521C0 24.8413 3.01768 21.9042 6.7276 21.9042H13.602V28.3806C13.602 32.0308 10.5349 35 6.76506 35ZM6.7291 24.0479C5.52987 24.0495 4.38022 24.5138 3.53223 25.3391C2.68425 26.1645 2.20716 27.2834 2.20557 28.4506C2.20557 30.8788 4.25082 32.8533 6.76656 32.8533C9.32125 32.8533 11.401 30.8467 11.401 28.3792V24.0479H6.7291ZM18.2724 24.0479H18.1256C14.4156 24.0479 11.398 21.1108 11.398 17.5C11.398 13.8892 14.4156 10.9521 18.1256 10.9521H18.2724C21.9823 10.9521 25 13.8892 25 17.5C25 21.1108 21.9823 24.0479 18.2724 24.0479ZM18.1271 13.0973C15.6323 13.0973 13.6035 15.0733 13.6035 17.5C13.6035 19.9267 15.6338 21.9027 18.1271 21.9027H18.2739C20.7687 21.9027 22.7974 19.9267 22.7974 17.5C22.7974 15.0733 20.7657 13.0973 18.2724 13.0973H18.1271Z" fill="#F24E1E"/>
</svg>
