<svg width="35" height="35" viewBox="0 0 35 35" fill="none" xmlns="http://www.w3.org/2000/svg">
<path d="M34.3379 15.9397L19.056 0.659287C18.1752 -0.220088 16.749 -0.220088 15.8652 0.659287L12.6992 3.83116L16.7242 7.85616C17.6648 7.54262 18.7352 7.75408 19.479 8.49929C20.2315 9.25033 20.4385 10.3339 20.1177 11.2701L23.994 15.1493C24.9346 14.8241 26.0167 15.0355 26.7648 15.7837C27.8162 16.8337 27.8162 18.5312 26.7648 19.5812C25.7162 20.6297 24.0217 20.6297 22.9731 19.5812C22.1871 18.7922 21.9902 17.6314 22.384 16.6703L18.7542 13.0595V22.5751C19.0108 22.7005 19.2529 22.8712 19.4658 23.0826C20.5056 24.1341 20.5056 25.8287 19.4658 26.8743C18.4173 27.9257 16.711 27.9257 15.661 26.8743C14.6125 25.8257 14.6125 24.1341 15.661 23.0855C15.9265 22.823 16.2254 22.6247 16.5433 22.4935V12.8845C16.2269 12.7518 15.925 12.5607 15.6683 12.2997C14.8735 11.5049 14.6825 10.3426 15.0908 9.36991L11.1358 5.39595L0.65625 15.8682C-0.21875 16.7505 -0.21875 18.1782 0.65625 19.0605L15.9396 34.3395C16.8204 35.2203 18.2467 35.2203 19.1275 34.3395L34.3379 19.1291C35.2202 18.2497 35.2202 16.822 34.3379 15.9397Z" fill="#F05032"/>
</svg>
