<svg width="16" height="16" viewBox="0 0 16 16" fill="none" xmlns="http://www.w3.org/2000/svg">
<path d="M8 0C3.58 0 0 3.67295 0 8.20312C0 11.8282 2.292 14.9023 5.47 15.9858C5.87 16.0631 6.01667 15.8095 6.01667 15.5914C6.01667 15.3966 6.01 14.8805 6.00667 14.1969C3.78133 14.6918 3.312 13.0963 3.312 13.0963C2.948 12.1495 2.422 11.8966 2.422 11.8966C1.69733 11.388 2.478 11.3982 2.478 11.3982C3.28133 11.4557 3.70333 12.2432 3.70333 12.2432C4.41667 13.4975 5.576 13.1352 6.03333 12.9254C6.10533 12.3949 6.31133 12.0333 6.54 11.8282C4.76333 11.6231 2.896 10.9177 2.896 7.77451C2.896 6.879 3.206 6.14755 3.71933 5.57334C3.62933 5.36621 3.35933 4.53222 3.78933 3.40224C3.78933 3.40224 4.45933 3.18213 5.98933 4.24306C6.62933 4.06054 7.30933 3.97031 7.98933 3.96621C8.66933 3.97031 9.34933 4.06054 9.98933 4.24306C11.5093 3.18213 12.1793 3.40224 12.1793 3.40224C12.6093 4.53222 12.3393 5.36621 12.2593 5.57334C12.7693 6.14755 13.0793 6.879 13.0793 7.77451C13.0793 10.9259 11.2093 11.6197 9.42933 11.8214C9.70933 12.0675 9.96933 12.5706 9.96933 13.339C9.96933 14.4368 9.95933 15.3186 9.95933 15.5852C9.95933 15.8006 10.0993 16.0569 10.5093 15.9749C13.71 14.8989 16 11.8227 16 8.20312C16 3.67295 12.418 0 8 0Z" fill="white"/>
</svg>
