<svg width="16" height="76" viewBox="0 0 16 76" fill="none" xmlns="http://www.w3.org/2000/svg">
<path d="M8 33C3.58 33 0 36.6729 0 41.2031C0 44.8282 2.292 47.9023 5.47 48.9858C5.87 49.0631 6.01667 48.8095 6.01667 48.5914C6.01667 48.3966 6.01 47.8805 6.00667 47.1969C3.78133 47.6918 3.312 46.0963 3.312 46.0963C2.948 45.1495 2.422 44.8966 2.422 44.8966C1.69733 44.388 2.478 44.3982 2.478 44.3982C3.28133 44.4557 3.70333 45.2432 3.70333 45.2432C4.41667 46.4975 5.576 46.1352 6.03333 45.9254C6.10533 45.3949 6.31133 45.0333 6.54 44.8282C4.76333 44.6231 2.896 43.9177 2.896 40.7745C2.896 39.879 3.206 39.1476 3.71933 38.5733C3.62933 38.3662 3.35933 37.5322 3.78933 36.4022C3.78933 36.4022 4.45933 36.1821 5.98933 37.2431C6.62933 37.0605 7.30933 36.9703 7.98933 36.9662C8.66933 36.9703 9.34933 37.0605 9.98933 37.2431C11.5093 36.1821 12.1793 36.4022 12.1793 36.4022C12.6093 37.5322 12.3393 38.3662 12.2593 38.5733C12.7693 39.1476 13.0793 39.879 13.0793 40.7745C13.0793 43.9259 11.2093 44.6197 9.42933 44.8214C9.70933 45.0675 9.96933 45.5706 9.96933 46.339C9.96933 47.4368 9.95933 48.3186 9.95933 48.5852C9.95933 48.8006 10.0993 49.0569 10.5093 48.9749C13.71 47.8989 16 44.8227 16 41.2031C16 36.6729 12.418 33 8 33Z" fill="white"/>
<path d="M16 66.5026V74.9999C16 75.5522 15.512 75.9994 14.9093 75.9994H12.3633V70.3349L8 73.3345L3.63667 70.3349V76H1.09067C0.947382 76 0.805502 75.9741 0.673133 75.9239C0.540764 75.8736 0.4205 75.7999 0.319213 75.707C0.217927 75.6142 0.137603 75.5039 0.0828308 75.3826C0.0280589 75.2613 -8.73785e-05 75.1312 2.03768e-07 74.9999V66.5026C2.03768e-07 65.2667 1.53933 64.5611 2.618 65.3027L3.63667 66.0035L8 69.0019L12.3633 66.0022L13.382 65.3027C14.46 64.5617 16 65.2667 16 66.5026Z" fill="white"/>
<path d="M13.6313 13.6347H11.262V9.922C11.262 9.03667 11.244 7.89733 10.0273 7.89733C8.792 7.89733 8.60333 8.86067 8.60333 9.85667V13.6347H6.234V6H8.51V7.04067H8.54067C8.85867 6.44067 9.632 5.80733 10.7873 5.80733C13.188 5.80733 13.632 7.38733 13.632 9.444L13.6313 13.6347ZM3.558 4.95533C2.79533 4.95533 2.18267 4.338 2.18267 3.57867C2.18267 2.82 2.796 2.20333 3.558 2.20333C4.318 2.20333 4.934 2.82 4.934 3.57867C4.934 4.338 4.31733 4.95533 3.558 4.95533ZM4.746 13.6347H2.37V6H4.746V13.6347ZM14.8167 0H1.18067C0.528 0 0 0.516 0 1.15267V14.8473C0 15.4847 0.528 16 1.18067 16H14.8147C15.4667 16 16 15.4847 16 14.8473V1.15267C16 0.516 15.4667 0 14.8147 0H14.8167Z" fill="white"/>
</svg>
