<svg width="30" height="34" viewBox="0 0 30 34" fill="none" xmlns="http://www.w3.org/2000/svg">
<g clip-path="url(#clip0_9_178)">
<path d="M21.4912 13.5363C19.9112 5.63125 16.1762 3.03308 15.775 2.04C15.425 1.48183 15.1125 0.6885 14.8562 0C14.8112 0.70125 14.7875 0.970417 14.2025 1.67733C13.2987 2.47917 8.65499 6.8935 8.27749 15.8723C7.92499 24.2477 13.615 29.2386 14.3875 29.8747L14.475 29.9455C14.6358 31.2938 14.7734 32.6456 14.8875 34H15.4887C15.6312 32.538 15.8437 31.0873 16.1262 29.6508C16.6475 29.2315 16.8812 28.9949 17.1887 28.6691C18.6449 27.1423 19.8022 25.2862 20.5858 23.2208C21.3693 21.1553 21.7617 18.9265 21.7375 16.6784C21.75 15.5252 21.6087 14.3239 21.4912 13.5363ZM14.8212 25.1458C14.8212 25.1458 14.8212 13.4002 15.165 13.4017C15.4312 13.4017 15.7775 28.5529 15.7775 28.5529C15.3012 28.4892 14.8212 26.0596 14.8212 25.1458Z" fill="#47A248"/>
</g>
<defs>
<clipPath id="clip0_9_178">
<rect width="30" height="34" fill="white"/>
</clipPath>
</defs>
</svg>
