<svg width="34" height="34" viewBox="0 0 34 34" fill="none" xmlns="http://www.w3.org/2000/svg">
<path d="M16.3941 0C16.1443 0 15.9552 0.00184167 15.8864 0.00949167C15.8133 0.017 15.5805 0.0392417 15.3713 0.0559583C10.5421 0.4913 6.01885 3.09655 3.15393 7.10076C1.55862 9.32733 0.538333 11.8527 0.153 14.5279C0.0167167 15.4615 0 15.7373 0 17.0034C0 18.2695 0.017 18.5453 0.153 19.4792C1.07667 25.8627 5.62006 31.226 11.782 33.213C12.8854 33.5688 14.0487 33.8113 15.3714 33.9575C15.8865 34.0142 18.1132 34.0142 18.6283 33.9575C20.9116 33.7049 22.846 33.1401 24.7536 32.1664C25.0461 32.0168 25.1026 31.977 25.0628 31.9436C25.0362 31.9239 23.7897 30.2523 22.2942 28.2319L19.5756 24.5599L16.169 19.519C14.2946 16.7474 12.7524 14.4813 12.7391 14.4813C12.7258 14.4776 12.7126 16.7178 12.7058 19.4524C12.6963 24.241 12.6926 24.4337 12.6327 24.5467C12.5463 24.7096 12.4797 24.7759 12.3403 24.849C12.2341 24.902 12.1408 24.9121 11.639 24.9121H11.0639L10.9112 24.8158C10.8165 24.7564 10.7395 24.6726 10.6885 24.5732L10.6186 24.4236L10.6261 17.761L10.6356 11.095L10.7385 10.9654C10.7917 10.8956 10.9048 10.806 10.9844 10.7628C11.1207 10.6963 11.174 10.6896 11.7488 10.6896C12.427 10.6896 12.5399 10.7161 12.716 10.9088C12.766 10.9622 14.6105 13.7402 16.8172 17.0866C19.0516 20.4736 21.2873 23.8597 23.5243 27.2449L26.2163 31.3224L26.3523 31.2327C27.559 30.4484 28.835 29.3318 29.8453 28.1689C31.9957 25.6997 33.3818 22.6892 33.847 19.479C33.9831 18.5453 33.9997 18.2692 33.9997 17.0034C33.9997 15.7373 33.9827 15.4615 33.847 14.5276C32.9231 8.14413 28.3798 2.78078 22.218 0.793758C21.1311 0.441433 19.9746 0.198758 18.6785 0.0525583C18.4391 0.027625 17.1432 0.000566667 16.3941 0ZM22.1578 10.2241C22.6498 10.2241 22.7361 10.2316 22.8459 10.2907C23.0055 10.3703 23.1349 10.5233 23.1816 10.6827C23.208 10.7691 23.2148 12.6168 23.208 16.7806L23.1985 22.7553L22.1451 21.1403L21.0881 19.5254V15.1819C21.0881 12.374 21.1012 10.7954 21.1212 10.7191C21.1744 10.5331 21.2907 10.3867 21.4503 10.3004C21.5865 10.2305 21.6359 10.2241 22.1578 10.2241Z" fill="white"/>
</svg>
