<svg width="35" height="35" viewBox="0 0 35 35" fill="none" xmlns="http://www.w3.org/2000/svg">
<path d="M24.2575 24.4262C25.5262 24.3109 26.5077 23.1344 26.445 21.7289C26.3764 20.3234 25.2842 19.1946 23.9527 19.1946H23.8638C23.203 19.2195 22.5787 19.52 22.128 20.0301C21.6774 20.5403 21.4372 21.2182 21.4605 21.915C21.5042 22.6516 21.79 23.2513 22.1809 23.6881C20.6526 26.8221 18.3586 29.1257 14.882 31.0617C12.5444 32.3504 10.0754 32.8363 7.67215 32.4919C5.6626 32.192 4.09054 31.2463 3.12805 29.7254C1.68724 27.4203 1.556 24.9337 2.75619 22.4455C3.63117 20.6463 4.94219 19.3346 5.81718 18.6887C5.55303 17.9164 5.34821 17.1229 5.20469 16.3159C-1.26583 21.203 -0.606678 27.8831 1.35912 31.0402C2.82327 33.3438 5.81718 34.817 9.094 34.817C9.96899 34.817 10.8877 34.7493 11.7817 34.5187C17.4647 33.3669 21.7682 29.7731 24.2371 24.4739L24.2575 24.4262ZM32.0566 18.6656C28.6733 14.4706 23.6888 12.167 18.0072 12.167H17.2635C16.8945 11.315 16.0428 10.7845 15.0789 10.7845H15.0133C13.6381 10.7845 12.5662 12.0301 12.6114 13.4802C12.6552 14.8612 13.7693 16.0145 15.1022 16.0145H15.2102C15.6829 15.9952 16.1404 15.8329 16.5281 15.5468C16.9157 15.2608 17.2171 14.8631 17.3962 14.4014H18.2055C21.5728 14.4014 24.7606 15.4378 27.667 17.4646C29.8939 19.0101 31.4907 21.0369 32.3876 23.4574C33.1722 25.438 33.1299 27.3741 32.322 28.9888C31.0751 31.5215 28.9766 32.8594 26.2029 32.8594C24.4544 32.8594 22.7511 32.2827 21.8761 31.8691C21.3511 32.3273 20.4761 33.0885 19.8432 33.5499C21.7653 34.4695 23.7106 35 25.5889 35C29.8501 35 33.0176 32.4673 34.2207 30.0237C35.5302 27.2588 35.4223 22.6054 32.077 18.6195L32.0566 18.6656ZM9.46441 25.2535C9.50816 26.636 10.6209 27.7878 11.9552 27.7878H12.0427C12.3711 27.78 12.6947 27.7029 12.9944 27.5612C13.2941 27.4195 13.5639 27.216 13.7878 26.9626C14.0118 26.7092 14.1854 26.4112 14.2984 26.0859C14.4115 25.7607 14.4616 25.415 14.446 25.069C14.446 23.685 13.31 22.5362 11.9771 22.5362H11.8896C11.8021 22.5362 11.6708 22.5362 11.56 22.5808C9.74732 19.3546 8.98171 15.8961 9.26754 12.167C9.44254 9.35589 10.3175 6.91235 11.8881 4.88555C13.2006 3.15707 15.6695 2.30207 17.3524 2.25901C22.0715 2.1652 24.0388 8.36555 24.1904 10.8306L26.375 11.5226C25.8719 3.96287 21.4167 0 17.1555 0C13.1539 0 9.46441 3.06481 7.97693 7.55822C5.94551 13.5479 7.2784 19.31 9.77066 23.9187C9.55191 24.2186 9.42066 24.7476 9.46441 25.2535Z" fill="#764ABC"/>
</svg>
