<svg width="49" height="35" viewBox="0 0 49 35" fill="none" xmlns="http://www.w3.org/2000/svg">
<path d="M28.5486 15.6262H32.8749C32.9753 15.6262 33.0716 15.5866 33.1427 15.5162C33.2139 15.4457 33.2541 15.3501 33.2547 15.2502V11.4153C33.2547 11.315 33.2147 11.2189 33.1435 11.148C33.0722 11.0771 32.9756 11.0373 32.8749 11.0373H28.5486C28.4485 11.0373 28.3524 11.0769 28.2816 11.1474C28.2107 11.2179 28.1709 11.3135 28.1709 11.4133V15.2502C28.1709 15.4575 28.3404 15.6262 28.5486 15.6262ZM22.5176 4.59091H26.8418C26.9425 4.59091 27.0391 4.55109 27.1103 4.4802C27.1815 4.40931 27.2216 4.31316 27.2216 4.21291V0.375971C27.221 0.276071 27.1808 0.180446 27.1096 0.109995C27.0385 0.0395447 26.9422 -1.4438e-06 26.8418 0H22.5176C22.4174 0 22.3213 0.0396114 22.2505 0.11012C22.1796 0.180628 22.1399 0.276257 22.1399 0.375971V4.21291C22.1399 4.4202 22.3073 4.59091 22.5176 4.59091ZM22.5176 10.1085H26.8418C26.9424 10.108 27.0386 10.068 27.1097 9.99723C27.1808 9.92646 27.221 9.83062 27.2216 9.73054V5.89563C27.221 5.79573 27.1808 5.70011 27.1096 5.62966C27.0385 5.55921 26.9422 5.51966 26.8418 5.51966H22.5176C22.4174 5.51966 22.3213 5.55927 22.2505 5.62978C22.1796 5.70029 22.1399 5.79592 22.1399 5.89563V9.73054C22.1399 9.93783 22.3073 10.1065 22.5176 10.1085ZM16.5355 10.1085H20.8638C20.9638 10.1075 21.0594 10.0672 21.1297 9.9964C21.2 9.92562 21.2395 9.83009 21.2395 9.73054V5.89563C21.2395 5.79592 21.1997 5.70029 21.1289 5.62978C21.058 5.55927 20.9619 5.51966 20.8618 5.51966H16.5375C16.4374 5.51966 16.3413 5.55927 16.2704 5.62978C16.1996 5.70029 16.1598 5.79592 16.1598 5.89563V9.73054C16.1598 9.93783 16.3293 10.1065 16.5375 10.1085M10.486 10.1085H14.8123C14.9127 10.108 15.0087 10.0679 15.0795 9.99711C15.1503 9.92628 15.19 9.83044 15.19 9.73054V5.89563C15.19 5.79592 15.1502 5.70029 15.0794 5.62978C15.0086 5.55927 14.9125 5.51966 14.8123 5.51966H10.486C10.3857 5.51966 10.2894 5.55921 10.2182 5.62966C10.1471 5.70011 10.1068 5.79573 10.1063 5.89563V9.73054C10.1063 9.93783 10.2778 10.1065 10.486 10.1085ZM22.5176 15.6262H26.8418C26.9422 15.6262 27.0385 15.5866 27.1096 15.5162C27.1808 15.4457 27.221 15.3501 27.2216 15.2502V11.4153C27.2216 11.315 27.1815 11.2189 27.1103 11.148C27.0391 11.0771 26.9425 11.0373 26.8418 11.0373H22.5176C22.4174 11.0373 22.3213 11.0769 22.2505 11.1474C22.1796 11.2179 22.1399 11.3135 22.1399 11.4133V15.2502C22.1399 15.4575 22.3073 15.6262 22.5176 15.6262ZM16.5355 15.6262H20.8638C20.9636 15.6256 21.0592 15.5858 21.1296 15.5153C21.2 15.4449 21.2395 15.3496 21.2395 15.2502V11.4153C21.2397 11.3659 21.2302 11.317 21.2115 11.2713C21.1928 11.2255 21.1652 11.1839 21.1303 11.1488C21.0954 11.1137 21.0539 11.0858 21.0082 11.0667C20.9625 11.0475 20.9134 11.0376 20.8638 11.0373H16.5355C16.4357 11.0378 16.3401 11.0777 16.2697 11.1481C16.1993 11.2186 16.1598 11.3139 16.1598 11.4133V15.2502C16.1598 15.4575 16.3293 15.6262 16.5375 15.6262M10.486 15.6262H14.8123C14.9125 15.6262 15.0086 15.5866 15.0794 15.516C15.1502 15.4455 15.19 15.3499 15.19 15.2502V11.4153C15.1903 11.3659 15.1808 11.317 15.1621 11.2713C15.1433 11.2255 15.1157 11.1839 15.0808 11.1488C15.046 11.1137 15.0045 11.0858 14.9587 11.0667C14.913 11.0475 14.864 11.0376 14.8144 11.0373H10.486C10.3853 11.0373 10.2887 11.0771 10.2175 11.148C10.1463 11.2189 10.1063 11.315 10.1063 11.4153V15.2502C10.1063 15.4575 10.2778 15.6262 10.486 15.6262ZM4.52437 15.6262H8.8527C8.95252 15.6256 9.04806 15.5858 9.11846 15.5153C9.18885 15.4449 9.22836 15.3496 9.22836 15.2502V11.4153C9.22863 11.3659 9.21913 11.317 9.20039 11.2713C9.18166 11.2255 9.15406 11.1839 9.11918 11.1488C9.0843 11.1137 9.04281 11.0858 8.99708 11.0667C8.95136 11.0475 8.9023 11.0376 8.8527 11.0373H4.52437C4.42454 11.0378 4.329 11.0777 4.2586 11.1481C4.18821 11.2186 4.1487 11.3139 4.1487 11.4133V15.2502C4.1487 15.4575 4.31407 15.6262 4.52437 15.6262ZM48.5161 13.2118C48.3834 13.1082 47.1441 12.1754 44.5267 12.1754C43.8366 12.1774 43.1465 12.2363 42.4646 12.3522C41.9583 8.8973 39.0898 7.21051 38.9611 7.13735L38.2588 6.73293L37.7974 7.39748C37.2176 8.28762 36.797 9.27124 36.5479 10.3036C36.0783 12.2749 36.3641 14.1284 37.3707 15.7115C36.1559 16.3862 34.2061 16.5509 33.81 16.5651H1.53333C1.12808 16.5656 0.739535 16.7258 0.452603 17.0107C0.165672 17.2955 0.00369488 17.6818 0.00207643 18.0852C-0.0357318 20.8996 0.443065 23.6972 1.41491 26.3403C2.52762 29.2424 4.18137 31.3804 6.33532 32.6892C8.74449 34.1585 12.6645 34.9999 17.1051 34.9999C19.1121 35.0059 21.1129 34.8251 23.0872 34.4593C25.8288 33.9579 28.467 33.0038 30.8925 31.6364C32.8933 30.4841 34.69 29.0189 36.2212 27.2955C38.7774 24.4137 40.3005 21.2048 41.4336 18.3535H41.8848C44.686 18.3535 46.4071 17.2378 47.3565 16.3029C47.9873 15.7075 48.4794 14.9819 48.7999 14.1772L49 13.5919L48.5161 13.2118Z" fill="#2496ED"/>
</svg>
