<svg width="16" height="11" viewBox="0 0 16 11" fill="none" xmlns="http://www.w3.org/2000/svg">
<path d="M16 1.50258V9.99992C16 10.5522 15.512 10.9994 14.9093 10.9994H12.3633V5.33491L8 8.33454L3.63667 5.33491V11H1.09067C0.947382 11 0.805502 10.9741 0.673133 10.9239C0.540764 10.8736 0.4205 10.7999 0.319213 10.707C0.217927 10.6142 0.137603 10.5039 0.0828308 10.3826C0.0280589 10.2613 -8.73785e-05 10.1312 2.03768e-07 9.99992V1.50258C2.03768e-07 0.266687 1.53933 -0.438929 2.618 0.302731L3.63667 1.00346L8 4.00187L12.3633 1.00224L13.382 0.302731C14.46 -0.438319 16 0.266687 16 1.50258Z" fill="white"/>
</svg>
