<svg width="35" height="35" viewBox="0 0 35 35" fill="none" xmlns="http://www.w3.org/2000/svg">
<path d="M17.5016 0C16.5723 0 15.6809 0.328571 15.0238 0.91343C14.3666 1.49829 13.9974 2.29153 13.9974 3.11865C13.9974 3.94576 14.3666 4.739 15.0238 5.32386C15.6809 5.90872 16.5723 6.23729 17.5016 6.23729C18.431 6.23729 19.3223 5.90872 19.9795 5.32386C20.6367 4.739 21.0059 3.94576 21.0059 3.11865C21.0059 2.29153 20.6367 1.49829 19.9795 0.91343C19.3223 0.328571 18.431 0 17.5016 0ZM31.4957 7.19104C30.5664 7.19104 29.675 7.51961 29.0179 8.10447C28.3607 8.68933 27.9915 9.48257 27.9915 10.3097C27.9915 11.1368 28.3607 11.93 29.0179 12.5149C29.675 13.0998 30.5664 13.4283 31.4957 13.4283C32.4251 13.4283 33.3164 13.0998 33.9736 12.5149C34.6308 11.93 35 11.1368 35 10.3097C35 9.48257 34.6308 8.68933 33.9736 8.10447C33.3164 7.51961 32.4251 7.19104 31.4957 7.19104ZM31.4957 21.5731C30.5664 21.5731 29.675 21.9017 29.0179 22.4866C28.3607 23.0714 27.9915 23.8647 27.9915 24.6918C27.9915 25.5189 28.3607 26.3121 29.0179 26.897C29.675 27.4818 30.5664 27.8104 31.4957 27.8104C32.4251 27.8104 33.3164 27.4818 33.9736 26.897C34.6308 26.3121 35 25.5189 35 24.6918C35 23.8647 34.6308 23.0714 33.9736 22.4866C33.3164 21.9017 32.4251 21.5731 31.4957 21.5731ZM17.5016 28.7642C16.5725 28.7642 15.6814 29.0927 15.0243 29.6774C14.3673 30.2621 13.9982 31.0552 13.9982 31.8821C13.9982 32.709 14.3673 33.5021 15.0243 34.0868C15.6814 34.6715 16.5725 35 17.5016 35C18.4308 35 19.3219 34.6715 19.9789 34.0868C20.636 33.5021 21.0051 32.709 21.0051 31.8821C21.0051 31.0552 20.636 30.2621 19.9789 29.6774C19.3219 29.0927 18.4308 28.7642 17.5016 28.7642ZM3.50426 21.5746C3.04418 21.5746 2.58861 21.6552 2.16355 21.8119C1.73849 21.9686 1.35228 22.1983 1.02695 22.4878C0.701629 22.7773 0.443567 23.121 0.267503 23.4993C0.0914385 23.8776 0.000819267 24.283 0.000819267 24.6925C0.000819267 25.102 0.0914385 25.5074 0.267503 25.8857C0.443567 26.264 0.701629 26.6077 1.02695 26.8972C1.35228 27.1867 1.73849 27.4164 2.16355 27.5731C2.58861 27.7298 3.04418 27.8104 3.50426 27.8104C4.43365 27.8104 5.32497 27.4818 5.98215 26.897C6.63932 26.3121 7.00852 25.5189 7.00852 24.6918C7.00852 23.8647 6.63932 23.0714 5.98215 22.4866C5.32497 21.9017 4.43365 21.5746 3.50426 21.5746ZM3.50426 7.19104C2.57487 7.19104 1.68355 7.51961 1.02637 8.10447C0.369198 8.68933 0 9.48257 0 10.3097C0 11.1368 0.369198 11.93 1.02637 12.5149C1.68355 13.0998 2.57487 13.4283 3.50426 13.4283C4.43365 13.4283 5.32497 13.0998 5.98215 12.5149C6.63932 11.93 7.00852 11.1368 7.00852 10.3097C7.00852 9.48257 6.63932 8.68933 5.98215 8.10447C5.32497 7.51961 4.43365 7.19104 3.50426 7.19104ZM17.5016 2.26479L2.67346 9.88313V25.1198L17.5016 32.7381L32.3265 25.1198V9.88313L17.5016 2.26479ZM17.5016 4.59958L30.0537 23.9517H4.94628L17.5016 4.59958ZM15.2288 5.14063L4.33997 21.929V10.7377L15.2288 5.14063ZM19.7745 5.14063L30.6649 10.7377V21.929L19.7745 5.14063ZM6.60951 25.4333H28.3921L17.5016 31.0275L6.60951 25.4333Z" fill="#E10098"/>
</svg>
