<svg width="34" height="34" viewBox="0 0 34 34" fill="none" xmlns="http://www.w3.org/2000/svg">
<path d="M10.9501 26.2941C10.9501 26.2941 9.18838 27.0497 12.2038 27.3053C15.8569 27.6127 17.724 27.5686 21.7497 27.0067C21.7497 27.0067 22.8081 27.4961 24.2862 27.9201C15.2616 30.7727 3.86169 27.7548 10.9501 26.2941Z" fill="#5382A1"/>
<path d="M9.84732 22.5716C9.84732 22.5716 7.87141 23.6503 10.8891 23.8805C14.7914 24.1774 17.8732 24.2017 23.2059 23.4444C23.2059 23.4444 23.9434 23.9959 25.1032 24.2975C14.1919 26.6506 2.03863 24.4831 9.84732 22.5716Z" fill="#5382A1"/>
<path d="M19.1439 16.2571C21.3676 18.1453 18.5597 19.8444 18.5597 19.8444C18.5597 19.8444 24.206 17.6947 21.6129 15.0027C19.191 12.4923 17.3338 11.245 27.3881 6.94437C27.3881 6.94437 11.6061 9.8514 19.1439 16.2571Z" fill="#E76F00"/>
<path d="M31.0798 29.0474C31.0798 29.0474 32.3834 29.8397 29.644 30.4526C24.4348 31.6164 7.96298 31.9678 3.38716 30.4989C1.74227 29.9712 4.82691 29.2388 5.79721 29.0851C6.80915 28.9233 7.38743 28.9534 7.38743 28.9534C5.55815 28.003 -4.43631 30.8196 2.31074 31.6262C20.7109 33.827 35.8525 30.6352 31.0798 29.0474Z" fill="#5382A1"/>
<path d="M11.7973 18.7147C11.7973 18.7147 3.41862 20.1824 8.83017 20.7154C11.1151 20.941 15.67 20.89 19.9129 20.6278C23.3803 20.4121 26.8621 19.9534 26.8621 19.9534C26.8621 19.9534 25.6394 20.3396 24.7548 20.7851C16.2465 22.4354 -0.19012 21.6677 4.54176 19.9796C8.54352 18.5529 11.7973 18.7147 11.7973 18.7147Z" fill="#5382A1"/>
<path d="M26.8275 24.9109C35.4767 21.5962 31.4776 18.4108 28.6864 18.8399C28.0022 18.9449 27.6972 19.0359 27.6972 19.0359C27.6972 19.0359 27.9512 18.7425 28.4362 18.6155C33.9583 17.1837 38.2051 22.8384 26.6537 25.078C26.6537 25.078 26.7875 24.9898 26.8275 24.9109Z" fill="#5382A1"/>
<path d="M21.6129 0C21.6129 0 26.4029 3.53395 17.0697 8.96816C9.58547 13.3273 15.3631 15.8128 17.0666 18.6526C12.6979 15.7456 9.49191 13.1865 11.6428 10.8047C14.7997 7.30855 23.5455 5.61346 21.6129 0Z" fill="#E76F00"/>
<path d="M12.6471 33.8931C20.9492 34.2851 33.698 33.6757 34 30.7784C34 30.7784 33.4196 31.8767 27.1387 32.749C20.0527 33.7325 11.3131 33.6176 6.12958 32.9873C6.12958 32.9873 7.19072 33.6351 12.6471 33.8931Z" fill="#5382A1"/>
</svg>
