<svg width="35" height="35" viewBox="0 0 35 35" fill="none" xmlns="http://www.w3.org/2000/svg">
<path d="M33.9414 17.2375C33.9395 16.2336 33.5721 15.2586 32.8966 14.4645C32.2212 13.6705 31.2756 13.102 30.2075 12.8479L35 0H11.2507L16.0561 12.8887C15.0187 13.1637 14.1072 13.7369 13.4583 14.5225C12.8095 15.3081 12.4581 16.2638 12.4569 17.2462C12.4569 18.7673 13.2909 20.1148 14.5628 20.9446C14.0512 21.6004 13.4687 22.2082 12.8242 22.7587C11.6385 23.7855 10.2511 24.6003 8.73416 25.1606C7.39648 24.3396 6.81747 22.8914 7.34035 21.5935C8.47827 21.2722 9.45208 20.591 10.0856 19.6734C10.719 18.7558 10.9703 17.6624 10.7939 16.5909C10.6176 15.5194 10.0252 14.5408 9.12398 13.832C8.22279 13.1233 7.07232 12.7312 5.88078 12.7269C4.55707 12.7284 3.28806 13.2072 2.35206 14.0582C1.41606 14.9093 0.889463 16.0631 0.887765 17.2667C0.887765 18.5033 1.44433 19.6379 2.33611 20.4487C2.25912 20.5902 2.18053 20.7331 2.10193 20.8848C1.35611 22.2833 0.509239 23.8642 0.185247 25.6375C-0.461134 29.1842 0.597455 32.0308 3.1509 33.6423C4.53289 34.5285 6.18333 35.0029 7.87445 35C10.8048 35 13.7801 33.6627 16.6559 32.3648C18.7074 31.4431 20.8245 30.4806 22.908 30.0139C23.6779 29.8419 24.4799 29.7412 25.3267 29.6289C27.0429 29.4058 28.8153 29.1739 30.408 28.331C31.3175 27.8571 32.1021 27.2081 32.7066 26.4294C33.3112 25.6507 33.7211 24.7613 33.9077 23.8233C34.1868 22.3737 33.9077 20.9154 33.1956 19.6379C33.6736 18.9379 33.9414 18.1198 33.9414 17.2375ZM31.7681 17.2375C31.7681 18.6448 30.509 19.7896 28.9612 19.7896C28.3784 19.7881 27.8104 19.622 27.336 19.3141C26.8615 19.0063 26.504 18.572 26.3128 18.0714C26.1217 17.5707 26.1065 17.0284 26.2692 16.5196C26.4318 16.0107 26.7645 15.5603 27.221 15.2308L27.2322 15.2206C27.322 15.1594 27.4215 15.0981 27.5209 15.0383C27.5209 15.0383 27.5337 15.0383 27.5337 15.0281C27.5786 15.0077 27.622 14.9771 27.6669 14.9552C27.6781 14.9552 27.6893 14.9465 27.7005 14.9465C27.7455 14.926 27.8016 14.9056 27.8561 14.8852C27.9123 14.8648 27.9684 14.8458 28.0133 14.8254C28.0245 14.8254 28.0342 14.8152 28.0454 14.8152C28.0903 14.805 28.1352 14.7846 28.1801 14.7744C28.1913 14.7744 28.2122 14.7642 28.225 14.7642C28.2796 14.754 28.3245 14.7437 28.3806 14.735H28.3918L28.5586 14.7029C28.5699 14.7029 28.5907 14.7029 28.6036 14.6927C28.6485 14.6927 28.6918 14.6825 28.7367 14.6825H28.7928C28.849 14.6825 28.9051 14.6723 28.9709 14.6723H29.1152C29.1601 14.6723 29.1954 14.6723 29.2387 14.6825H29.2612C29.3494 14.6927 29.4392 14.7029 29.529 14.7233C30.1618 14.8466 30.729 15.1631 31.1364 15.6203C31.5438 16.0775 31.7667 16.6491 31.7681 17.2375ZM14.3607 2.02708H31.8916L27.8674 12.8187C27.7005 12.8479 27.5337 12.899 27.3669 12.95L23.1326 5.09687L18.8854 12.899C18.7186 12.8494 18.5389 12.8187 18.3609 12.7881L14.3607 2.02708ZM22.329 16.3552C22.124 15.4198 21.5971 14.5679 20.8245 13.9227L23.131 9.6877L25.4599 14.0146C24.7702 14.6417 24.2682 15.4437 24.0677 16.3552H22.329ZM16.7458 14.754C16.8003 14.7437 16.8452 14.7335 16.9013 14.7248H16.9334C16.9799 14.7131 17.0232 14.7131 17.0681 14.7029H17.1131C17.158 14.7029 17.1916 14.6927 17.2349 14.6927H17.6696C17.7145 14.6927 17.7482 14.7029 17.7819 14.7029C17.8043 14.7029 17.814 14.7029 17.838 14.7131C17.8813 14.7233 17.915 14.7233 17.9599 14.7335C17.9711 14.7335 17.9824 14.7335 18.0048 14.7437L18.1604 14.7729H18.1716C18.2165 14.7846 18.2615 14.7948 18.3048 14.8152C18.316 14.8152 18.3272 14.8254 18.3497 14.8254C18.3834 14.8356 18.4283 14.8458 18.462 14.8648C18.4732 14.8648 18.4844 14.875 18.494 14.875C18.5389 14.8954 18.5838 14.9056 18.6288 14.926H18.64C18.6915 14.9437 18.7401 14.9678 18.7843 14.9975H18.7956C18.8405 15.0179 18.8854 15.0471 18.9303 15.0675C18.9415 15.0675 18.9415 15.0777 18.9511 15.0777C18.9961 15.0981 19.0313 15.1287 19.0746 15.1492L19.0859 15.1594C19.219 15.2498 19.3425 15.3519 19.4644 15.4525L19.4756 15.4627C19.9723 15.9384 20.2481 16.5699 20.2455 17.2258C20.2209 17.8881 19.9142 18.5158 19.3902 18.9764C18.8662 19.437 18.1659 19.6945 17.437 19.6945C16.7082 19.6945 16.0079 19.437 15.4839 18.9764C14.9599 18.5158 14.6532 17.8881 14.6286 17.2258C14.6268 16.6579 14.8344 16.1059 15.2182 15.6578C15.6019 15.2097 16.1398 14.8915 16.7458 14.754ZM5.77813 14.6825C7.32752 14.6825 8.5866 15.8287 8.5866 17.236C8.5866 18.6433 7.32752 19.7896 5.77973 19.7896C4.23194 19.7896 2.96966 18.6448 2.96966 17.2375C2.96966 15.8302 4.23034 14.6825 5.77813 14.6825ZM31.7023 23.4689C31.5756 24.1173 31.2931 24.7322 30.875 25.2698C30.4569 25.8075 29.9136 26.2547 29.2836 26.5796C28.0678 27.2183 26.5746 27.421 25.0027 27.6237C24.1189 27.7267 23.2411 27.8683 22.3723 28.0481C20.0546 28.5658 17.8268 29.5794 15.6647 30.5521C12.8995 31.7975 10.2916 32.9729 7.87445 32.9729C6.63498 32.9799 5.42512 32.6286 4.4196 31.9696C1.96721 30.4296 2.0891 27.5421 2.37941 25.9612C2.64727 24.481 3.39309 23.0942 4.10684 21.7656C4.15175 21.6854 4.18543 21.614 4.23034 21.5323C4.47414 21.614 4.73076 21.6752 4.99862 21.716C4.57518 23.8642 5.77813 26.0823 8.11985 27.1775L8.54329 27.3802L8.9988 27.2285C10.9492 26.6 12.7552 25.5762 14.3495 24.2083C15.2299 23.4619 16.0081 22.6217 16.6672 21.7058C16.9238 21.7452 17.1804 21.7554 17.437 21.7554C18.5404 21.7531 19.6118 21.419 20.4845 20.8052C21.3572 20.1913 21.982 19.3323 22.2616 18.3619H24.1334C24.4112 19.3338 25.036 20.1943 25.9098 20.8085C26.7835 21.4227 27.8568 21.7557 28.9612 21.7554C29.8851 21.7554 30.7416 21.5221 31.4794 21.1283C31.7681 21.8867 31.8579 22.6785 31.7023 23.4689Z" fill="#C21325"/>
</svg>
