<svg width="34" height="34" viewBox="0 0 34 34" fill="none" xmlns="http://www.w3.org/2000/svg">
<path d="M0 0H34V34H0V0ZM31.2148 25.891C30.9669 24.3397 29.9568 23.0364 26.9606 21.8209C25.9179 21.3322 24.7591 20.9922 24.4148 20.2059C24.2859 19.7384 24.2661 19.4834 24.3497 19.2072C24.5622 18.292 25.6459 18.0172 26.4959 18.2722C27.0484 18.4422 27.5584 18.8672 27.8786 19.5472C29.3434 18.5895 29.3434 18.5895 30.3648 17.9534C29.9823 17.3584 29.7925 17.102 29.5347 16.8484C28.6422 15.8497 27.4536 15.3397 25.5198 15.3836L24.5211 15.5097C23.5634 15.7434 22.6511 16.2534 22.0986 16.9334C20.4836 18.7623 20.9497 21.9498 22.9047 23.2673C24.8384 24.7123 27.6661 25.0297 28.0273 26.3911C28.3673 28.0486 26.7948 28.5798 25.2422 28.3886C24.0933 28.1336 23.4572 27.5584 22.7559 26.4959L20.1634 27.9848C20.4609 28.6648 20.8009 28.9609 21.3109 29.5559C23.7759 32.0436 29.9384 31.9161 31.0448 28.1336C31.0859 28.0061 31.3848 27.1348 31.1497 25.7961L31.2148 25.891ZM18.4889 15.6272H15.3042C15.3042 18.3727 15.2915 21.1012 15.2915 23.851C15.2915 25.5963 15.3807 27.1986 15.096 27.6916C14.6285 28.6677 13.4243 28.543 12.8775 28.3716C12.3165 28.0939 12.0317 27.7114 11.7017 27.1603C11.6124 27.0116 11.5458 26.8827 11.5218 26.8827L8.93633 28.4764C9.36842 29.3689 9.99883 30.1367 10.812 30.6255C12.0232 31.348 13.651 31.5818 15.3552 31.1992C16.4645 30.8791 17.4207 30.2203 17.9208 29.2003C18.6433 27.8828 18.4903 26.2678 18.4832 24.4602C18.5002 21.5503 18.4832 18.6391 18.4832 15.7066L18.4889 15.6272Z" fill="#F7DF1E"/>
</svg>
