<svg width="34" height="34" viewBox="0 0 34 34" fill="none" xmlns="http://www.w3.org/2000/svg">
<g clip-path="url(#clip0_9_176)">
<path d="M16.9972 34.0001C16.5424 34.0001 16.0891 33.8811 15.691 33.6502L11.5317 31.1894C10.9112 30.8424 11.2143 30.7191 11.4183 30.6469C12.2471 30.3593 12.4142 30.2927 13.2997 29.7912C13.3917 29.7388 13.5136 29.7586 13.6085 29.8153L16.8045 31.7122C16.9207 31.7759 17.0836 31.7759 17.1898 31.7122L29.6494 24.5212C29.7656 24.4546 29.8392 24.3214 29.8392 24.184V9.80485C29.8392 9.6646 29.7642 9.53285 29.6452 9.46202L17.1912 2.27669C17.0765 2.2101 16.9235 2.2101 16.8073 2.27669L4.35624 9.46344C4.23583 9.53285 4.15933 9.66885 4.15933 9.80485V24.184C4.15933 24.3214 4.23583 24.4518 4.35624 24.5169L7.769 26.4889C9.62058 27.4154 10.7553 26.3246 10.7553 25.2281V11.0317C10.7553 10.8305 10.9168 10.6733 11.118 10.6733H12.6976C12.8945 10.6733 13.0588 10.8319 13.0588 11.0317V25.2281C13.0588 27.7002 11.713 29.1169 9.36983 29.1169C8.65016 29.1169 8.08208 29.1169 6.49966 28.3363L3.22999 26.4564C2.42249 25.9903 1.92383 25.1176 1.92383 24.184V9.80485C1.92383 8.87127 2.42391 7.9986 3.22999 7.53394L15.6896 0.334436C16.4787 -0.111814 17.5256 -0.111814 18.3076 0.334436L30.7657 7.53394C31.5732 8.00002 32.0747 8.87127 32.0747 9.80485V24.184C32.0747 25.1176 31.5732 25.9874 30.7657 26.4564L18.3076 33.6502C17.9109 33.8811 17.459 34.0001 16.9972 34.0001ZM27.0569 19.8235C27.0569 17.1319 25.2379 16.415 21.4087 15.9093C17.5397 15.3979 17.1459 15.1329 17.1459 14.2277C17.1459 13.4797 17.4788 12.4809 20.3447 12.4809C22.9047 12.4809 23.8482 13.032 24.2363 14.7575C24.2703 14.9204 24.4191 15.0394 24.5862 15.0394H26.2027C26.3032 15.0394 26.3982 14.9955 26.4662 14.9247C26.5342 14.8482 26.571 14.7504 26.5611 14.647C26.3103 11.6749 24.3355 10.2894 20.3447 10.2894C16.7917 10.2894 14.6724 11.7882 14.6724 14.3028C14.6724 17.0299 16.7804 17.7835 20.1903 18.1207C24.2703 18.5202 24.5862 19.1166 24.5862 19.9184C24.5862 21.311 23.4685 21.9046 20.8434 21.9046C17.5468 21.9046 16.8215 21.0773 16.5778 19.4368C16.5495 19.2611 16.3993 19.1322 16.2194 19.1322H14.6087C14.4089 19.1322 14.2488 19.2909 14.2488 19.4906C14.2488 21.5901 15.3907 24.0919 20.8434 24.0919C24.7931 24.0934 27.0569 22.5393 27.0569 19.8235Z" fill="#339933"/>
</g>
<defs>
<clipPath id="clip0_9_176">
<rect width="34" height="34" fill="white"/>
</clipPath>
</defs>
</svg>
