<svg width="34" height="34" viewBox="0 0 34 34" fill="none" xmlns="http://www.w3.org/2000/svg">
<g clip-path="url(#clip0_9_182)">
<path d="M33.3758 20.8573C33.3564 20.7979 33.3296 20.7413 33.2961 20.6886C33.0992 20.3157 32.6206 20.2044 31.8689 20.3598C29.5267 20.843 28.6198 20.5456 28.291 20.3327C30.1922 17.4311 31.7547 13.9265 32.5992 10.6573C32.9837 9.16881 33.73 5.66539 32.7723 3.9542C32.7111 3.83708 32.6396 3.72566 32.5586 3.62128C30.7319 1.28718 28.051 0.0351334 24.8057 0.000708414C22.6882 -0.0216749 20.8808 0.491017 20.3912 0.679858C20.1487 0.634598 19.905 0.59605 19.6604 0.564258C19.0471 0.453206 18.4257 0.392653 17.8026 0.383208C16.1278 0.357142 14.6805 0.757492 13.482 1.57406C12.2675 1.11917 6.69787 -0.756358 3.25098 1.68569C1.32587 3.04952 0.437195 5.48717 0.609462 8.93109C0.667404 10.0899 1.32757 13.6543 2.36939 17.0679C3.02077 19.2021 3.69921 20.8955 4.40004 22.1424C5.18345 23.5508 5.99506 24.3995 6.82863 24.6775C7.46245 24.8887 8.43329 24.8816 9.46094 23.6463C10.596 22.2813 11.7139 21.0597 12.2158 20.5198C12.8322 20.8535 13.4999 21.0334 14.185 21.0542C14.1851 21.0562 14.1853 21.0581 14.1855 21.06C14.0662 21.2022 13.9495 21.3464 13.8353 21.4927C13.3552 22.1021 13.2553 22.2289 11.71 22.5471C11.2706 22.6378 10.103 22.8785 10.086 23.6967C10.0824 23.8701 10.1326 24.0238 10.2162 24.1597C10.5376 24.7591 11.5218 25.0234 11.6541 25.0566C13.5446 25.529 15.202 25.1869 16.4302 24.0951C16.4061 27.2557 16.54 30.3531 16.9195 31.3022C17.2329 32.0855 17.9988 34.0003 20.4176 34C20.7725 34 21.1632 33.9588 21.5928 33.8667C24.1172 33.3254 25.2134 32.2098 25.6374 29.75C25.8504 28.5165 26.2064 25.6767 26.4007 23.94C26.4247 23.8404 26.4513 23.769 26.4815 23.747C26.4825 23.7463 26.5802 23.6803 27.0867 23.7905C27.1074 23.795 27.1283 23.7982 27.1494 23.8001L27.5091 23.8317L27.5302 23.8332C28.7299 23.8876 30.2381 23.6311 31.1161 23.2229C32.0282 22.7996 33.6742 21.7604 33.3758 20.8573ZM3.35893 16.825C2.30564 13.3743 1.69024 9.90448 1.6415 8.93152C1.48765 5.85537 2.2324 3.71408 3.85476 2.56686C6.45675 0.727175 10.7111 1.80073 12.5078 2.38269C12.5032 2.38723 12.4984 2.39133 12.4939 2.39601C9.62683 5.29168 9.69483 10.2387 9.70191 10.5411C9.70163 10.6577 9.71126 10.8229 9.72486 11.0501C9.77416 11.8822 9.86596 13.4307 9.62074 15.1845C9.3928 16.8143 9.89514 18.4094 10.9989 19.5609C11.1131 19.68 11.2323 19.792 11.3556 19.8972C10.8643 20.4234 9.79669 21.5867 8.66038 22.9538C7.85614 23.9207 7.3008 23.7354 7.1182 23.6745C6.563 23.4893 5.96645 22.8428 5.36422 21.8012C4.68479 20.6126 3.99926 18.923 3.35893 16.825ZM11.8691 24.0318C11.6267 23.9711 11.4057 23.8714 11.2568 23.7807C11.3828 23.7249 11.5932 23.653 11.9415 23.5811C13.7595 23.207 14.0403 22.9428 14.6534 22.1642C14.794 21.9857 14.9532 21.7835 15.1738 21.5372C15.2212 21.484 15.2568 21.4213 15.2782 21.3533C15.5202 21.1389 15.6641 21.1976 15.8971 21.2942C16.1181 21.3857 16.3332 21.6625 16.4206 21.9674C16.4618 22.1113 16.5083 22.3846 16.3566 22.597C15.0755 24.3902 13.2093 24.367 11.8691 24.0318ZM14.8356 18.3821L14.7613 18.5819C14.5728 19.087 14.3976 19.5567 14.2889 20.0028C13.3435 19.9998 12.4235 19.5959 11.7241 18.866C10.8345 17.938 10.4305 16.647 10.6155 15.3238C10.8745 13.4709 10.7789 11.8575 10.7274 10.9908C10.7204 10.8694 10.714 10.7631 10.7102 10.6793C11.1291 10.308 13.0702 9.26798 14.4543 9.58503C15.086 9.72981 15.4709 10.1598 15.6308 10.8997C16.459 14.7301 15.7405 16.3265 15.163 17.6094C15.044 17.8738 14.9317 18.1236 14.8356 18.3821ZM25.2675 24.8598C25.2436 25.1103 25.2168 25.3925 25.18 25.704L24.9732 26.3249C24.9567 26.3741 24.948 26.4256 24.9474 26.4775C24.939 27.15 24.8709 27.3968 24.7845 27.709C24.6946 28.0337 24.5928 28.4019 24.5303 29.2071C24.3745 31.2107 23.2862 32.3616 21.1059 32.8288C18.959 33.2894 18.5782 32.125 18.2426 31.0981C18.2082 30.9904 18.1719 30.8834 18.1336 30.7771C17.8285 29.9472 17.8629 28.7769 17.9106 27.1574C17.934 26.3623 17.8754 24.4639 17.4429 23.4086C17.4491 22.9932 17.4579 22.5715 17.4698 22.1452C17.4712 22.0912 17.4639 22.0373 17.4481 21.9857C17.4344 21.8861 17.4136 21.7876 17.3859 21.691C17.2122 21.0843 16.7891 20.5767 16.2813 20.3663C16.0796 20.2827 15.7093 20.1294 15.2645 20.2432C15.3594 19.8522 15.5238 19.4109 15.7022 18.9329L15.7771 18.7317C15.8614 18.5051 15.967 18.2703 16.0789 18.0217C16.6831 16.6793 17.5106 14.8409 16.6124 10.6873C16.2761 9.13169 15.1527 8.37208 13.4498 8.54845C12.4289 8.65413 11.495 9.0661 11.029 9.30226C10.9356 9.3496 10.8432 9.39877 10.7517 9.44973C10.8817 7.88233 11.373 4.95309 13.2106 3.09981C13.3471 2.96227 13.4905 2.83177 13.6402 2.70881C13.7146 2.69431 13.7847 2.66311 13.8452 2.61758C14.9111 1.80923 16.2458 1.41256 17.8147 1.4382C18.3943 1.44769 18.9505 1.48623 19.4782 1.55295C22.2251 2.05502 24.0737 3.60258 25.1957 4.92844C26.3493 6.2917 26.9739 7.66473 27.2232 8.40537C25.3487 8.21468 24.0734 8.585 23.427 9.50895C22.0208 11.5191 24.1963 15.4206 25.2419 17.2955C25.4336 17.6392 25.5992 17.9361 25.6512 18.0624C25.9916 18.8876 26.4325 19.4384 26.7543 19.8406C26.8529 19.9638 26.9487 20.0834 27.0214 20.1876C26.4536 20.3513 25.4336 20.7295 25.5265 22.6201C25.5091 22.8415 25.4666 23.2532 25.4084 23.7744C25.343 24.0686 25.3089 24.4265 25.2675 24.8598ZM26.5291 22.5633C26.4717 21.3852 26.9103 21.262 27.3744 21.1317C27.4386 21.1141 27.5024 21.0949 27.5657 21.0742C27.6255 21.1272 27.689 21.176 27.7558 21.2201C28.5637 21.7535 29.9974 21.817 32.0154 21.4105C31.7298 21.6611 31.2803 21.9763 30.6649 22.2621C30.0843 22.5317 29.1127 22.7338 28.1896 22.7772C27.17 22.8248 26.6512 22.6628 26.5291 22.5633ZM27.3359 9.42905C27.3275 9.92602 27.2591 10.3771 27.1866 10.8481C27.1086 11.3547 27.0279 11.8786 27.0075 12.5144C26.9874 13.1332 27.0647 13.7765 27.1395 14.3987C27.2905 15.6553 27.4455 16.9491 26.8456 18.2257C26.746 18.0492 26.6572 17.8667 26.5798 17.6794C26.5051 17.4987 26.3434 17.2083 26.1192 16.8065C25.2471 15.2423 23.2046 11.5796 24.2502 10.085C24.7879 9.31614 26.1497 9.28299 27.3359 9.42905ZM27.6594 19.3651C27.6194 19.3142 27.5792 19.2635 27.5386 19.213L27.4883 19.1501C28.5171 17.4508 28.3159 15.7696 28.1369 14.2789C28.0633 13.6671 27.9939 13.0894 28.0115 12.5469C28.0298 11.9715 28.1058 11.4783 28.1794 11.0011C28.2699 10.4132 28.3618 9.80503 28.3365 9.08792C28.3554 9.01269 28.3631 8.92387 28.3532 8.81847C28.2884 8.13068 27.5033 6.07297 25.9032 4.21005C25.0424 3.20804 23.7929 2.08902 22.0939 1.32076C22.8378 1.16974 23.8404 1.03247 24.9618 1.0574C27.8681 1.122 30.1675 2.20986 31.7961 4.2908C31.8307 4.33597 31.8623 4.3834 31.8906 4.43275C32.915 6.35318 31.4993 13.3225 27.6594 19.3651ZM15.1693 10.7005C15.1338 10.9547 14.7316 11.2991 14.2894 11.2991C14.251 11.2991 14.2127 11.2964 14.1748 11.2911C13.9094 11.2543 13.6414 11.0871 13.4581 10.844C13.3932 10.7583 13.2876 10.5919 13.3086 10.4411C13.3164 10.3843 13.3456 10.3016 13.4396 10.2303C13.6071 10.1037 13.938 10.0566 14.3032 10.1075C14.7513 10.17 15.2136 10.382 15.1693 10.7005ZM26.4041 10.1177C26.4199 10.2299 26.3347 10.4024 26.1872 10.5571C26.0905 10.6587 25.8869 10.835 25.6094 10.8733C25.5742 10.8782 25.5387 10.8807 25.5031 10.8807C25.0873 10.8807 24.7361 10.5486 24.7088 10.3541C24.6748 10.1041 25.0829 9.91412 25.5037 9.85547C25.9244 9.79682 26.3694 9.86793 26.4041 10.1177Z" fill="#4169E1"/>
</g>
<defs>
<clipPath id="clip0_9_182">
<rect width="34" height="34" fill="white"/>
</clipPath>
</defs>
</svg>
