<svg width="34" height="34" viewBox="0 0 34 34" fill="none" xmlns="http://www.w3.org/2000/svg">
<path d="M20.1592 17.004C20.1592 17.947 19.8256 18.8514 19.2319 19.5184C18.6381 20.1853 17.8328 20.5602 16.9929 20.5607C16.1528 20.5607 15.3471 20.1859 14.753 19.5189C14.159 18.8519 13.8252 17.9473 13.8252 17.004C13.8252 16.061 14.1588 15.1565 14.7525 14.4896C15.3463 13.8226 16.1516 13.4477 16.9915 13.4473C17.8316 13.4473 18.6373 13.822 19.2314 14.489C19.8254 15.156 20.1592 16.0607 20.1592 17.004ZM23.9105 0C22.0037 0 19.5089 1.52702 16.9858 4.17067C14.4642 1.54133 11.968 0.0318128 10.0626 0.0318128C9.48175 0.0318128 8.95333 0.179743 8.49575 0.474012C6.54783 1.73539 6.1115 5.66587 7.11733 10.5985C2.805 12.0937 0 14.4844 0 17.004C0 19.5331 2.81917 21.9302 7.14425 23.4143C6.14692 28.3659 6.59175 32.3028 8.54392 33.5626C8.99725 33.86 9.52142 34 10.1051 34C12.0105 34 14.5067 32.473 17.0297 29.8262C19.5514 32.4571 22.0476 33.9666 23.953 33.9666C24.5338 33.9666 25.0623 33.8234 25.5198 33.5292C27.4663 32.2694 27.9041 28.3389 26.8982 23.4047C31.195 21.9222 34 19.5267 34 17.004C34 14.4749 31.1808 12.0778 26.8558 10.5905C27.8531 5.6436 27.4083 1.70358 25.4561 0.442199C25.0056 0.14952 24.4828 0.00159064 23.9105 0ZM23.9034 1.7338V1.74335C24.2222 1.74335 24.4786 1.81333 24.6939 1.94536C25.6374 2.55298 26.0468 4.86419 25.7281 7.8371C25.6516 8.5688 25.5269 9.34026 25.3739 10.1276C24.0139 9.75223 22.5321 9.46433 20.9723 9.27822C20.0373 7.83869 19.0669 6.53118 18.0894 5.38592C20.3447 3.03177 22.4627 1.74016 23.9048 1.73539L23.9034 1.7338ZM10.0626 1.76561C11.4962 1.76561 13.6241 3.05085 15.8851 5.39228C14.9132 6.53754 13.9443 7.8371 13.0234 9.27663C11.4552 9.46274 9.97192 9.75064 8.61333 10.1324C8.45467 9.35298 8.33708 8.59902 8.2535 7.87368C7.92767 4.90236 8.33 2.59275 9.265 1.97717C9.53417 1.83401 9.83167 1.77357 10.0626 1.76561ZM16.9787 6.61708C17.6233 7.3615 18.2679 8.19499 18.9054 9.10484C18.2821 9.07303 17.6446 9.05076 17 9.05076C16.3483 9.05076 15.7038 9.06667 15.0733 9.10484C15.6967 8.19499 16.3412 7.36309 16.9787 6.61708ZM17 10.7941C18.0483 10.7941 19.0924 10.8482 20.1195 10.942C20.6947 11.8678 21.2557 12.8556 21.7954 13.9006C22.3224 14.9186 22.8013 15.9526 23.2376 16.996C22.8013 18.0379 22.3224 19.0798 21.8025 20.0978C21.2642 21.1476 20.7074 22.1465 20.1308 23.0723C19.0995 23.1725 18.054 23.2282 17 23.2282C15.9517 23.2282 14.9076 23.1725 13.8805 23.0802C13.3053 22.1545 12.7443 21.1651 12.2046 20.1216C11.6776 19.1036 11.1988 18.0697 10.7624 17.0262C11.1917 15.9812 11.6776 14.9377 12.1975 13.9181C12.7358 12.8683 13.2926 11.8726 13.8692 10.9468C14.9005 10.845 15.946 10.7909 17 10.7909V10.7941ZM11.8504 11.1981C11.5104 11.7978 11.1704 12.4118 10.8531 13.0433C10.5343 13.6636 10.2368 14.2872 9.9535 14.9107C9.57808 13.8672 9.25933 12.8269 8.99583 11.8137C9.9025 11.5751 10.8587 11.362 11.8504 11.1981ZM22.1354 11.1981C23.12 11.362 24.0692 11.564 24.9772 11.8137C24.7222 12.819 24.4035 13.8529 24.0422 14.8884C23.7589 14.2681 23.4614 13.6429 23.1356 13.021C22.8168 12.3975 22.4768 11.7898 22.1368 11.1981H22.1354ZM26.4747 12.2718C27.1603 12.5104 27.812 12.776 28.4226 13.064C30.8762 14.241 32.4629 15.7808 32.4629 17.0024C32.4558 18.224 30.8692 19.7701 28.4155 20.9392C27.8205 21.2255 27.1688 21.4832 26.4959 21.7234C26.0992 20.1996 25.5808 18.6121 24.9376 16.9833C25.5751 15.3656 26.0851 13.7861 26.4747 12.2686V12.2718ZM7.49842 12.2782C7.89225 13.8052 8.41217 15.3911 9.05675 17.0183C8.41925 18.636 7.90642 20.2155 7.51825 21.733C6.83258 21.4944 6.18092 21.2271 5.57742 20.9376C3.12375 19.7653 1.53708 18.224 1.53708 17.0024C1.53708 15.7808 3.12375 14.2315 5.57742 13.064C6.17242 12.7776 6.82408 12.52 7.49842 12.2782ZM24.0422 19.0861C24.4177 20.1312 24.7364 21.1731 24.9999 22.1847C24.0932 22.4344 23.1356 22.646 22.1439 22.8051C22.4839 22.2086 22.8239 21.593 23.1427 20.9631C23.4614 20.3427 23.7575 19.7097 24.0422 19.0861ZM9.9535 19.1179C10.2368 19.7415 10.5343 20.3634 10.8602 20.9869C11.186 21.6073 11.5189 22.2149 11.8589 22.8051C10.8743 22.6428 9.92517 22.4392 9.01708 22.1911C9.27208 21.189 9.59225 20.1519 9.95208 19.1164L9.9535 19.1179ZM25.3867 23.8692C25.5453 24.6534 25.67 25.4089 25.7465 26.1327C26.0723 29.104 25.67 31.4136 24.735 32.0308C24.5267 32.1739 24.2562 32.2344 23.9374 32.2344C22.5037 32.2344 20.3759 30.9507 18.1149 28.6077C19.0868 27.4625 20.0557 26.1645 20.9766 24.7265C22.5448 24.5389 24.0281 24.2509 25.3867 23.8692ZM8.6275 23.8851C9.9875 24.2573 11.4693 24.5452 13.0291 24.7313C13.9641 26.1709 14.9345 27.4784 15.912 28.622C13.6524 30.981 11.5317 32.2726 10.0895 32.2726C9.77783 32.2646 9.51433 32.193 9.30608 32.0626C8.36258 31.4582 7.95317 29.1454 8.27192 26.1724C8.34842 25.4408 8.4745 24.6709 8.6275 23.8851ZM15.0875 24.9031C15.7108 24.9349 16.3483 24.9572 16.9929 24.9572C17.6446 24.9572 18.2892 24.9413 18.9196 24.9031C18.2962 25.813 17.6517 26.6449 17.0142 27.3925C16.3696 26.6449 15.725 25.813 15.0875 24.9031Z" fill="#61DAFB"/>
</svg>
