<svg width="35" height="35" viewBox="0 0 35 35" fill="none" xmlns="http://www.w3.org/2000/svg">
<path d="M17.5 0C27.1644 0 35 7.83562 35 17.5C35 27.1644 27.1644 35 17.5 35C7.83562 35 0 27.1644 0 17.5C0 7.83562 7.83562 0 17.5 0ZM14.0219 23.3304C14.2771 24.271 14.2494 25.1504 13.9869 25.9438L13.8921 26.2062C13.8571 26.2952 13.8163 26.3813 13.7783 26.4629C13.5742 26.8858 13.3029 27.2796 12.969 27.6442C11.951 28.751 10.5306 29.171 9.92104 28.8181C9.26479 28.436 9.59146 26.8712 10.7727 25.6244C12.0429 24.2856 13.8644 23.4238 13.8644 23.4238V23.4194L14.0219 23.3304ZM28.4754 7.49146C27.685 4.38083 22.5298 3.35854 17.6517 5.0925C14.751 6.12354 11.6083 7.74375 9.34937 9.85688C6.66167 12.3667 6.23438 14.5542 6.41083 15.4685C7.03354 18.6929 11.4523 20.8017 13.2694 22.3665V22.3752C12.7342 22.6377 8.81271 24.605 7.89396 26.6408C6.90958 28.7846 8.04708 30.3173 8.79083 30.5127C11.0877 31.1485 13.4502 29.9877 14.719 28.1079C15.944 26.269 15.836 23.9065 15.3081 22.7471C16.0315 22.5502 16.8831 22.4627 17.9769 22.5954C21.0408 22.9454 21.6533 24.8704 21.5206 25.6579C21.3894 26.444 20.7579 26.9033 20.5377 27.0346C20.319 27.1673 20.2533 27.2096 20.2738 27.2985C20.2956 27.4298 20.4065 27.4298 20.58 27.4079C20.8206 27.3642 22.1783 26.7517 22.244 25.2627C22.3096 23.3815 20.5144 21.2829 17.3221 21.3252C16.0096 21.3485 15.1769 21.4579 14.5877 21.6985C14.544 21.6329 14.4988 21.5892 14.4346 21.5454C12.4658 19.4235 8.81271 17.936 8.96583 15.1142C9.00958 14.086 9.38146 11.375 15.9658 8.09375C21.369 5.40167 25.6798 6.14688 26.4235 7.7875C27.4925 10.1267 24.1252 14.4813 18.5033 15.1142C16.3596 15.3548 15.244 14.525 14.9581 14.2173C14.6533 13.8892 14.6096 13.8673 14.5002 13.9344C14.3252 14.0219 14.4346 14.3063 14.5002 14.4813C14.6752 14.9188 15.3533 15.6844 16.536 16.0781C17.5627 16.4062 20.0798 16.6017 23.0985 15.4219C26.4877 14.1108 29.1346 10.4563 28.369 7.39375L28.4754 7.49146Z" fill="#CC6699"/>
</svg>
