<svg width="63" height="60" viewBox="0 0 63 60" fill="none" xmlns="http://www.w3.org/2000/svg">
<path d="M1 57.2207C1 47.9367 11.5103 42.0399 17.5686 36.5292C28.822 26.2928 40.7403 17.0585 52.1703 7.09475C53.084 6.29833 61.8667 -0.403669 61.965 1.26615C62.2662 6.37942 60.5894 9.47236 58.2119 13.7976C54.919 19.7882 51.681 25.707 48.4172 31.672C45.5329 36.9436 40.7582 40.6582 37.6156 45.6607C35.9154 48.3672 32.5981 51.448 30.201 53.5293C28.7856 54.7582 25.0346 59.8678 22.9236 58.8722C21.7341 58.3111 22.4201 52.9062 22.4201 51.5379C22.4201 46.3549 23.5266 46.0846 26.0817 41.8235C30.0083 35.2754 34.1434 29.8196 39.3091 24.3377C41.766 21.7304 44.3794 19.3842 46.8611 16.8091C48.1896 15.4306 49.9362 12.4432 51.7127 11.7576C54.4128 10.7156 54.657 14.6721 53.2688 16.5662C50.8785 19.8277 49.2894 23.1432 46.3576 26.1349C40.9838 31.6183 36.5036 42.3164 29.8348 45.855" stroke="white"/>
</svg>
