<svg width="35" height="35" viewBox="0 0 35 35" fill="none" xmlns="http://www.w3.org/2000/svg">
<path d="M17.4069 0.000149855C15.9436 0.00435247 14.4865 0.189718 13.0687 0.552024C6.24397 2.24999 0.828014 8.43989 0.133848 15.4577C-0.726568 22.0989 2.62453 29.0146 8.36424 32.4439C13.9946 35.974 21.6243 35.831 27.1379 32.1184C32.0917 28.8976 35.176 23.026 34.9922 17.1031C34.9076 11.24 31.6235 5.54488 26.594 2.53308C23.8495 0.838035 20.6253 -0.01299 17.4069 0.000149855ZM17.315 2.47628C24.5262 2.46606 31.5901 8.04423 32.3089 15.5059C33.687 23.769 26.8361 32.168 18.473 32.4118C10.5195 33.206 2.83308 26.4554 2.60703 18.4593C2.01349 11.986 6.27605 5.56094 12.3745 3.42221C13.9463 2.79535 15.6232 2.47343 17.315 2.47628ZM24.7391 7.18444C20.8207 10.2284 17.0686 13.4738 13.2349 16.6111C14.9892 16.6359 16.7521 16.6345 18.5153 16.6257C20.5715 13.4649 22.6845 10.3466 24.7391 7.18444ZM16.4781 18.3586C14.4219 21.5209 12.3073 24.6494 10.2512 27.8101C14.1785 24.7735 17.9144 21.5032 21.7745 18.3849C20.0091 18.3635 18.2436 18.3548 16.4781 18.3586Z" fill="#010101"/>
</svg>
