<svg width="34" height="34" viewBox="0 0 34 34" fill="none" xmlns="http://www.w3.org/2000/svg">
<path d="M30.9581 1.98651C30.486 3.12025 29.875 4.19085 29.1391 5.17367C27.5633 3.54229 25.6767 2.24389 23.5909 1.35525C21.5051 0.466611 19.2625 0.00579382 16.9957 5.42838e-05C14.7289 -0.00568525 12.484 0.44377 10.3937 1.32183C8.30345 2.1999 6.41031 3.48873 4.82626 5.11211C3.24221 6.73549 1.99943 8.66043 1.17143 10.7731C0.343433 12.8857 -0.0529691 15.1432 0.00567454 17.4119C0.0643182 19.6806 0.576816 21.9145 1.51285 23.9814C2.44889 26.0484 3.78946 27.9064 5.45525 29.4455L6.08497 30.0059C8.47457 32.0236 11.3753 33.3398 14.466 33.8086C17.5567 34.2775 20.7167 33.8808 23.5961 32.6624C26.4755 31.444 28.9619 29.4516 30.7799 26.9056C32.5979 24.3597 33.6766 21.3597 33.8966 18.2378C34.3863 13.9649 33.0921 8.50111 30.9581 1.98651ZM7.90426 29.5857C7.72439 29.807 7.48304 29.9699 7.2107 30.0539C6.93836 30.1379 6.64726 30.1392 6.37419 30.0576C6.10111 29.976 5.85832 29.8153 5.6765 29.5956C5.49467 29.3759 5.38198 29.1072 5.35265 28.8234C5.32332 28.5396 5.37867 28.2535 5.51172 28.0011C5.64476 27.7488 5.84953 27.5417 6.10013 27.4059C6.35073 27.27 6.63593 27.2116 6.91968 27.238C7.20343 27.2644 7.47299 27.3744 7.69431 27.5542C7.98446 27.8002 8.16833 28.149 8.20746 28.5276C8.2466 28.9063 8.13795 29.2854 7.90426 29.5857ZM30.8531 24.5071C26.6902 30.076 17.7346 28.1846 12.0323 28.4649C12.0323 28.4649 11.0178 28.535 10.0032 28.6749C10.0032 28.6749 10.3881 28.4999 10.8779 28.3248C14.9009 26.9239 16.7899 26.6436 19.2388 25.3827C23.8216 23.036 28.4044 17.8876 29.3139 12.5638C27.5648 17.6774 22.2474 22.0904 17.4197 23.8767C14.0963 25.1026 8.11421 26.2934 8.11421 26.2934L7.86927 26.1533C3.8112 24.1568 3.67137 15.3307 11.0877 12.4938C14.3412 11.2328 17.4197 11.9335 20.953 11.0929C24.6961 10.2172 29.0341 7.41523 30.7833 3.73774C32.7423 9.65678 35.1212 18.8332 30.8531 24.5071Z" fill="#6DB33F"/>
</svg>
