<svg width="35" height="25" viewBox="0 0 35 25" fill="none" xmlns="http://www.w3.org/2000/svg">
<path d="M17.5 0C12.8333 0 9.91667 2.77778 8.75 8.33333C10.5 5.55556 12.5417 4.51389 14.875 5.20833C16.2065 5.60417 17.1573 6.75347 18.2117 8.02778C19.9281 10.1007 21.9129 12.5 26.25 12.5C30.9167 12.5 33.8333 9.72222 35 4.16667C33.25 6.94444 31.2083 7.98611 28.875 7.29167C27.5435 6.89583 26.5927 5.74653 25.5383 4.47222C23.8233 2.3993 21.8385 0 17.5 0ZM8.75 12.5C4.08333 12.5 1.16667 15.2778 0 20.8333C1.75 18.0556 3.79167 17.0139 6.125 17.7083C7.45646 18.1042 8.40729 19.2535 9.46167 20.5278C11.1781 22.6007 13.1629 25 17.5 25C22.1667 25 25.0833 22.2222 26.25 16.6667C24.5 19.4444 22.4583 20.4861 20.125 19.7917C18.7935 19.3958 17.8427 18.2465 16.7883 16.9722C15.0733 14.8993 13.0885 12.5 8.75 12.5Z" fill="#06B6D4"/>
</svg>
