<svg width="34" height="34" viewBox="0 0 34 34" fill="none" xmlns="http://www.w3.org/2000/svg">
<g clip-path="url(#clip0_9_172)">
<path d="M1.59375 0C0.711167 0 0 0.711167 0 1.59375V32.4062C0 33.2888 0.711167 34 1.59375 34H32.4062C33.2888 34 34 33.2888 34 32.4062V1.59375C34 0.711167 33.2888 0 32.4062 0H1.59375ZM26.1913 13.8125C27.0583 13.8125 27.8262 13.8649 28.4962 13.9697C29.1283 14.0644 29.7485 14.2259 30.3464 14.4514V17.9336C30.0594 17.7351 29.7544 17.5639 29.4355 17.4222C29.1066 17.2742 28.7671 17.1511 28.4198 17.0538C27.7618 16.8705 27.0825 16.7752 26.3996 16.7705C25.9746 16.7705 25.5878 16.8102 25.2393 16.8923C24.9287 16.9588 24.6308 17.0745 24.3568 17.2352C24.1159 17.3825 23.9317 17.5596 23.8 17.765C23.6675 17.972 23.5985 18.2134 23.6017 18.4592C23.6017 18.7368 23.6768 18.9876 23.8227 19.2086C23.97 19.4296 24.1797 19.6392 24.4503 19.8376C24.7208 20.0359 25.0495 20.2286 25.4362 20.4184C25.823 20.6097 26.2607 20.8066 26.7481 21.0077C27.4139 21.2868 28.0117 21.5843 28.5416 21.8974C29.0714 22.2119 29.5262 22.5675 29.9058 22.9642C30.2855 23.3594 30.5745 23.8113 30.7757 24.3199C30.9768 24.8285 31.0788 25.4192 31.0788 26.095C31.0788 27.0257 30.9018 27.8092 30.5504 28.441C30.2071 29.0641 29.7145 29.5923 29.1167 29.9781C28.4724 30.3866 27.7583 30.6729 27.0102 30.8224C26.2083 30.9924 25.3626 31.0774 24.4743 31.0774C23.6001 31.0813 22.7274 31.0035 21.8677 30.8451C21.1238 30.7164 20.4024 30.4812 19.7257 30.1467V26.4208C21.006 27.5104 22.6302 28.1125 24.3114 28.1208C24.7832 28.1208 25.1954 28.0783 25.5468 27.9933C25.8995 27.9083 26.1927 27.7893 26.4293 27.6392C26.6645 27.4862 26.8402 27.3077 26.9577 27.1008C27.0877 26.86 27.1468 26.5873 27.1283 26.3143C27.1097 26.0413 27.0143 25.7791 26.8529 25.5581C26.6424 25.2796 26.385 25.0399 26.0922 24.8498C25.729 24.609 25.3466 24.3986 24.9489 24.2207C24.4775 24.0055 24.0019 23.7995 23.5223 23.6031C22.2218 23.0605 21.2528 22.3961 20.6139 21.6127C19.9764 20.8292 19.6562 19.8815 19.6562 18.7722C19.6562 17.9024 19.8305 17.1558 20.179 16.5311C20.5275 15.9063 21.0007 15.3921 21.6013 14.9883C22.2367 14.5692 22.942 14.2674 23.6838 14.0972C24.5055 13.9035 25.3472 13.8079 26.1913 13.8125ZM4.78125 14.0788H18.3288V17.1473H13.4668V30.8125H9.61775V17.1473H4.78125V14.0788Z" fill="#3178C6"/>
</g>
<defs>
<clipPath id="clip0_9_172">
<rect width="34" height="34" fill="white"/>
</clipPath>
</defs>
</svg>
